Pontano-Bold.ufo
<glyph name="ampersand" format="1">
  <advance width="1430"/>
  <unicode hex="0026"/>
  <outline>
    <contour>
      <point x="673" y="1491" type="curve" smooth="yes"/>
      <point x="474.824" y="1491"/>
      <point x="313.767" y="1383.71"/>
      <point x="313.767" y="1177.41" type="curve" smooth="yes"/>
      <point x="313.767" y="1096.33"/>
      <point x="338.34" y="1028.62"/>
      <point x="402" y="957" type="curve" smooth="yes"/>
      <point x="1277" y="-37" type="line"/>
      <point x="1420" y="91" type="line"/>
      <point x="599" y="1012" type="line" smooth="yes"/>
      <point x="549.773" y="1066.41"/>
      <point x="525.159" y="1123.06"/>
      <point x="525.159" y="1180.65" type="curve" smooth="yes"/>
      <point x="525.159" y="1249.97"/>
      <point x="568.113" y="1307"/>
      <point x="678" y="1307" type="curve" smooth="yes"/>
      <point x="778.561" y="1307"/>
      <point x="824.791" y="1247.38"/>
      <point x="824.791" y="1181.08" type="curve" smooth="yes"/>
      <point x="824.791" y="1121.1"/>
      <point x="786.886" y="1030.28"/>
      <point x="522" y="928" type="curve" smooth="yes"/>
      <point x="228.734" y="814.51"/>
      <point x="97.9079" y="666.095"/>
      <point x="97.9079" y="412.874" type="curve" smooth="yes"/>
      <point x="97.9079" y="169.136"/>
      <point x="295.566" y="-25"/>
      <point x="582" y="-25" type="curve" smooth="yes"/>
      <point x="851" y="-25"/>
      <point x="1234" y="78"/>
      <point x="1335" y="776" type="curve"/>
      <point x="1144" y="803" type="line"/>
      <point x="1065" y="283"/>
      <point x="837" y="160"/>
      <point x="617" y="160" type="curve" smooth="yes"/>
      <point x="404.932" y="160"/>
      <point x="326.591" y="277.305"/>
      <point x="326.591" y="440.39" type="curve" smooth="yes"/>
      <point x="326.591" y="570.564"/>
      <point x="390.668" y="683.588"/>
      <point x="640" y="803" type="curve" smooth="yes"/>
      <point x="967" y="959"/>
      <point x="1025" y="1041"/>
      <point x="1025" y="1211" type="curve" smooth="yes"/>
      <point x="1025" y="1393"/>
      <point x="861" y="1491"/>
    </contour>
  </outline>
</glyph>
<glyph name="comma" format="1">
  <advance width="445"/>
  <unicode hex="002C"/>
  <outline>
    <contour>
      <point x="185" y="-301" type="line"/>
      <point x="325.105" y="-223.054"/>
      <point x="362.02" y="-117.851"/>
      <point x="362.02" y="80.8831" type="curve" smooth="yes"/>
      <point x="362.02" y="83.5715"/>
      <point x="362.013" y="86.2771"/>
      <point x="362" y="89" type="curve" smooth="yes"/>
      <point x="362" y="243" type="line"/>
      <point x="84" y="243" type="line"/>
      <point x="84" y="-4" type="line"/>
      <point x="207" y="-17" type="line"/>
      <point x="207" y="-90"/>
      <point x="146" y="-172"/>
      <point x="112" y="-205" type="curve"/>
    </contour>
  </outline>
</glyph>
<glyph name="zero" format="1">
  <advance width="1246"/>
  <unicode hex="0030"/>
  <outline>
    <contour>
      <point x="623" y="161" type="curve" smooth="yes"/>
      <point x="390" y="161"/>
      <point x="309" y="355"/>
      <point x="309" y="724" type="curve" smooth="yes"/>
      <point x="309" y="1094"/>
      <point x="390" y="1304"/>
      <point x="623" y="1304" type="curve" smooth="yes"/>
      <point x="856" y="1304"/>
      <point x="937" y="1094"/>
      <point x="937" y="724" type="curve" smooth="yes"/>
      <point x="937" y="355"/>
      <point x="856" y="161"/>
    </contour>
    <contour>
      <point x="623" y="-24" type="curve" smooth="yes"/>
      <point x="1009" y="-24"/>
      <point x="1181" y="264"/>
      <point x="1181" y="724" type="curve" smooth="yes"/>
      <point x="1181" y="1184"/>
      <point x="1009" y="1489"/>
      <point x="623" y="1489" type="curve" smooth="yes"/>
      <point x="237" y="1489"/>
      <point x="65" y="1184"/>
      <point x="65" y="724" type="curve" smooth="yes"/>
      <point x="65" y="264"/>
      <point x="237" y="-24"/>
    </contour>
  </outline>
</glyph>
<glyph name="three" format="1">
  <advance width="1269"/>
  <unicode hex="0033"/>
  <outline>
    <contour>
      <point x="164" y="316" type="line"/>
      <point x="225.071" y="67.71"/>
      <point x="392.716" y="-24.0034"/>
      <point x="624.099" y="-24.0034" type="curve" smooth="yes"/>
      <point x="933.812" y="-24.0034"/>
      <point x="1099" y="196.124"/>
      <point x="1099" y="396.194" type="curve" smooth="yes"/>
      <point x="1099" y="575.509"/>
      <point x="1035.82" y="751.729"/>
      <point x="823" y="822" type="curve"/>
      <point x="984" y="885"/>
      <point x="1028" y="1017"/>
      <point x="1028" y="1157" type="curve" smooth="yes"/>
      <point x="1028" y="1356"/>
      <point x="865" y="1489"/>
      <point x="610" y="1489" type="curve" smooth="yes"/>
      <point x="440" y="1489"/>
      <point x="298" y="1412"/>
      <point x="198" y="1256" type="curve"/>
      <point x="364" y="1156" type="line"/>
      <point x="444" y="1274"/>
      <point x="516" y="1307"/>
      <point x="617" y="1307" type="curve" smooth="yes"/>
      <point x="732" y="1307"/>
      <point x="805" y="1237"/>
      <point x="805" y="1140" type="curve" smooth="yes"/>
      <point x="805" y="1006"/>
      <point x="776" y="899"/>
      <point x="502" y="899" type="curve"/>
      <point x="502" y="722" type="line"/>
      <point x="717.971" y="722"/>
      <point x="865.471" y="664.785"/>
      <point x="865.471" y="420.455" type="curve" smooth="yes"/>
      <point x="865.471" y="280.27"/>
      <point x="806.565" y="160.696"/>
      <point x="620.095" y="160.696" type="curve" smooth="yes"/>
      <point x="461.49" y="160.696"/>
      <point x="407.577" y="247.67"/>
      <point x="359" y="381" type="curve"/>
    </contour>
  </outline>
</glyph>
<glyph name="semicolon" format="1">
  <advance width="478"/>
  <unicode hex="003B"/>
  <outline>
    <contour>
      <point x="221" y="-301" type="line"/>
      <point x="363.027" y="-223.082"/>
      <point x="399.021" y="-117.926"/>
      <point x="399.021" y="80.6709" type="curve" smooth="yes"/>
      <point x="399.021" y="83.4292"/>
      <point x="399.014" y="86.2055"/>
      <point x="399" y="89" type="curve" smooth="yes"/>
      <point x="399" y="243" type="line"/>
      <point x="122" y="243" type="line"/>
      <point x="122" y="-4" type="line"/>
      <point x="245" y="-17" type="line"/>
      <point x="245" y="-90"/>
      <point x="184" y="-174"/>
      <point x="150" y="-206" type="curve"/>
    </contour>
    <contour>
      <point x="111" y="808" type="line"/>
      <point x="380" y="808" type="line"/>
      <point x="380" y="1050" type="line"/>
      <point x="111" y="1050" type="line"/>
    </contour>
  </outline>
</glyph>
<glyph name="B" format="1">
  <advance width="1335"/>
  <unicode hex="0042"/>
  <outline>
    <contour>
      <point x="1207.03" y="1101.84" type="curve" smooth="yes"/>
      <point x="1207.03" y="1416.44"/>
      <point x="903.719" y="1464"/>
      <point x="596" y="1464" type="curve" smooth="yes"/>
      <point x="134" y="1464" type="line"/>
      <point x="134" y="0" type="line"/>
      <point x="560" y="0" type="line" smooth="yes"/>
      <point x="1018" y="0"/>
      <point x="1256" y="85"/>
      <point x="1256" y="413" type="curve" smooth="yes"/>
      <point x="1256" y="601"/>
      <point x="1201" y="744"/>
      <point x="990" y="777" type="curve"/>
      <point x="1177.73" y="812.383"/>
      <point x="1207.03" y="946.298"/>
    </contour>
    <contour>
      <point x="365" y="172" type="line"/>
      <point x="365" y="692" type="line"/>
      <point x="639" y="692" type="line" smooth="yes"/>
      <point x="905" y="692"/>
      <point x="1026" y="665"/>
      <point x="1026" y="420" type="curve" smooth="yes"/>
      <point x="1026" y="174"/>
      <point x="803" y="172"/>
      <point x="582" y="172" type="curve" smooth="yes"/>
    </contour>
    <contour>
      <point x="365" y="860" type="line"/>
      <point x="365" y="1292" type="line"/>
      <point x="603" y="1292" type="line" smooth="yes"/>
      <point x="617.536" y="1292"/>
      <point x="631.697" y="1292.02"/>
      <point x="645.477" y="1292.02" type="curve" smooth="yes"/>
      <point x="854.474" y="1292.02"/>
      <point x="975.804" y="1286.74"/>
      <point x="988" y="1116" type="curve" smooth="yes"/>
      <point x="989.415" y="1095.28"/>
      <point x="990.227" y="1076.13"/>
      <point x="990.227" y="1058.45" type="curve" smooth="yes"/>
      <point x="990.227" y="901.212"/>
      <point x="925.971" y="860"/>
      <point x="650" y="860" type="curve" smooth="yes"/>
    </contour>
  </outline>
</glyph>
<glyph name="H" format="1">
  <advance width="1514"/>
  <unicode hex="0048"/>
  <outline>
    <contour>
      <point x="134" y="0" type="line"/>
      <point x="365" y="0" type="line"/>
      <point x="365" y="661" type="line"/>
      <point x="1150" y="661" type="line"/>
      <point x="1150" y="0" type="line"/>
      <point x="1381" y="0" type="line"/>
      <point x="1381" y="1464" type="line"/>
      <point x="1150" y="1464" type="line"/>
      <point x="1150" y="845" type="line"/>
      <point x="365" y="845" type="line"/>
      <point x="365" y="1464" type="line"/>
      <point x="134" y="1464" type="line"/>
    </contour>
  </outline>
</glyph>
<glyph name="Y" format="1">
  <advance width="1224"/>
  <unicode hex="0059"/>
  <outline>
    <contour>
      <point x="500" y="0" type="line"/>
      <point x="729" y="0" type="line"/>
      <point x="729" y="548" type="line"/>
      <point x="1226" y="1464" type="line"/>
      <point x="979" y="1464" type="line"/>
      <point x="616" y="757" type="line"/>
      <point x="246" y="1464" type="line"/>
      <point x="-2" y="1464" type="line"/>
      <point x="500" y="549" type="line"/>
    </contour>
  </outline>
</glyph>
<glyph name="backslash" format="1">
  <advance width="632"/>
  <unicode hex="005C"/>
  <outline>
    <contour>
      <point x="432" y="-5" type="line"/>
      <point x="660" y="-5" type="line"/>
      <point x="263" y="1464" type="line"/>
      <point x="35" y="1464" type="line"/>
    </contour>
  </outline>
</glyph>
<glyph name="bracketright" format="1">
  <advance width="708"/>
  <unicode hex="005D"/>
  <outline>
    <contour>
      <point x="134" y="-52" type="line"/>
      <point x="627" y="-52" type="line"/>
      <point x="627" y="1480" type="line"/>
      <point x="134" y="1480" type="line"/>
      <point x="134" y="1312" type="line"/>
      <point x="395" y="1312" type="line"/>
      <point x="395" y="118" type="line"/>
      <point x="134" y="118" type="line"/>
    </contour>
  </outline>
</glyph>
<glyph name="a" format="1">
  <advance width="1004"/>
  <unicode hex="0061"/>
  <outline>
    <contour>
      <point x="388" y="-24" type="curve" smooth="yes"/>
      <point x="517" y="-24"/>
      <point x="627" y="24"/>
      <point x="694" y="118" type="curve"/>
      <point x="712" y="0" type="line"/>
      <point x="903" y="0" type="line"/>
      <point x="903" y="681" type="line" smooth="yes"/>
      <point x="903" y="935"/>
      <point x="740" y="1047"/>
      <point x="496" y="1047" type="curve" smooth="yes"/>
      <point x="317" y="1047"/>
      <point x="209" y="1004"/>
      <point x="94" y="921" type="curve"/>
      <point x="94" y="921"/>
      <point x="181" y="790"/>
      <point x="181" y="789" type="curve"/>
      <point x="266" y="845"/>
      <point x="341" y="889"/>
      <point x="488" y="889" type="curve" smooth="yes"/>
      <point x="658" y="889"/>
      <point x="681" y="812"/>
      <point x="681" y="641" type="curve" smooth="yes"/>
      <point x="681" y="603" type="line"/>
      <point x="560" y="583" type="line"/>
      <point x="283" y="539"/>
      <point x="65" y="503"/>
      <point x="65" y="247" type="curve" smooth="yes"/>
      <point x="65" y="71"/>
      <point x="203" y="-24"/>
    </contour>
    <contour>
      <point x="416" y="133" type="curve" smooth="yes"/>
      <point x="297.103" y="133"/>
      <point x="271.813" y="190.866"/>
      <point x="271.813" y="273.799" type="curve" smooth="yes"/>
      <point x="271.813" y="373.385"/>
      <point x="333.82" y="395.364"/>
      <point x="547" y="438" type="curve"/>
      <point x="681" y="464" type="line"/>
      <point x="681" y="268" type="line"/>
      <point x="613" y="192"/>
      <point x="537" y="133"/>
    </contour>
  </outline>
</glyph>
<glyph name="d" format="1">
  <advance width="1160"/>
  <unicode hex="0064"/>
  <outline>
    <contour>
      <point x="933" y="1023" type="move" name="caron.alt"/>
    </contour>
    <contour>
      <point x="539" y="-24" type="curve" smooth="yes"/>
      <point x="678" y="-24"/>
      <point x="788" y="32"/>
      <point x="856" y="134" type="curve"/>
      <point x="865" y="5" type="line"/>
      <point x="1036" y="5" type="line"/>
      <point x="1036" y="1479" type="line"/>
      <point x="814" y="1479" type="line"/>
      <point x="814" y="922" type="line"/>
      <point x="752" y="997"/>
      <point x="664" y="1047"/>
      <point x="543" y="1047" type="curve" smooth="yes"/>
      <point x="279" y="1047"/>
      <point x="87" y="876"/>
      <point x="87" y="526" type="curve" smooth="yes"/>
      <point x="87" y="168"/>
      <point x="253" y="-24"/>
    </contour>
    <contour>
      <point x="573.445" y="132.526" type="curve" smooth="yes"/>
      <point x="380.972" y="132.526"/>
      <point x="314" y="257.945"/>
      <point x="314" y="524" type="curve" smooth="yes"/>
      <point x="314" y="770.458"/>
      <point x="387.868" y="890.378"/>
      <point x="565.245" y="890.378" type="curve" smooth="yes"/>
      <point x="684.287" y="890.378"/>
      <point x="824" y="820.165"/>
      <point x="824" y="522" type="curve" smooth="yes"/>
      <point x="824" y="310.286"/>
      <point x="775.899" y="132.526"/>
    </contour>
  </outline>
</glyph>
<glyph name="g" format="1">
  <advance width="1166"/>
  <unicode hex="0067"/>
  <outline>
    <contour>
      <point x="832" y="27" type="line" smooth="yes"/>
      <point x="832" y="-191.727"/>
      <point x="775.66" y="-316.1"/>
      <point x="561.49" y="-316.1" type="curve" smooth="yes"/>
      <point x="409.184" y="-316.1"/>
      <point x="325.642" y="-252.264"/>
      <point x="266" y="-176" type="curve"/>
      <point x="146" y="-300" type="line"/>
      <point x="225" y="-399"/>
      <point x="382" y="-483"/>
      <point x="568" y="-483" type="curve" smooth="yes"/>
      <point x="569.01" y="-483.004"/>
      <point x="570.018" y="-483.005"/>
      <point x="571.026" y="-483.005" type="curve" smooth="yes"/>
      <point x="854.421" y="-483.005"/>
      <point x="1054" y="-342.704"/>
      <point x="1054" y="22" type="curve" smooth="yes"/>
      <point x="1054" y="1023" type="line"/>
      <point x="865" y="1023" type="line"/>
      <point x="844" y="891" type="line"/>
      <point x="781" y="982"/>
      <point x="683" y="1047"/>
      <point x="547" y="1047" type="curve" smooth="yes"/>
      <point x="283" y="1047"/>
      <point x="89" y="865"/>
      <point x="89" y="524" type="curve" smooth="yes"/>
      <point x="89" y="177"/>
      <point x="262" y="-24"/>
      <point x="548" y="-24" type="curve" smooth="yes"/>
      <point x="667" y="-24"/>
      <point x="765" y="15"/>
      <point x="832" y="90" type="curve"/>
    </contour>
    <contour>
      <point x="562" y="133" type="curve" smooth="yes"/>
      <point x="390.789" y="133"/>
      <point x="313.992" y="263.293"/>
      <point x="313.992" y="524.835" type="curve" smooth="yes"/>
      <point x="313.992" y="755.491"/>
      <point x="403.869" y="890"/>
      <point x="561" y="890" type="curve" smooth="yes"/>
      <point x="689" y="890"/>
      <point x="833" y="852"/>
      <point x="833" y="476" type="curve" smooth="yes"/>
      <point x="833" y="267"/>
      <point x="780" y="133"/>
    </contour>
  </outline>
</glyph>
<glyph name="h" format="1">
  <advance width="1142"/>
  <unicode hex="0068"/>
  <outline>
    <contour>
      <point x="123" y="0" type="line"/>
      <point x="347" y="0" type="line"/>
      <point x="347" y="537" type="line"/>
      <point x="355" y="718"/>
      <point x="417" y="889"/>
      <point x="612" y="889" type="curve" smooth="yes"/>
      <point x="756" y="889"/>
      <point x="807" y="799"/>
      <point x="807" y="602" type="curve" smooth="yes"/>
      <point x="807" y="0" type="line"/>
      <point x="1029" y="0" type="line"/>
      <point x="1029" y="597" type="line" smooth="yes"/>
      <point x="1029" y="803"/>
      <point x="985" y="1044"/>
      <point x="662" y="1044" type="curve" smooth="yes"/>
      <point x="517" y="1044"/>
      <point x="416" y="991"/>
      <point x="347" y="897" type="curve"/>
      <point x="347" y="1474" type="line"/>
      <point x="123" y="1474" type="line"/>
    </contour>
  </outline>
</glyph>
<glyph name="m" format="1">
  <advance width="1825"/>
  <unicode hex="006D"/>
  <outline>
    <contour>
      <point x="123" y="0" type="line"/>
      <point x="346" y="0" type="line"/>
      <point x="346" y="485" type="line" smooth="yes"/>
      <point x="345.991" y="486.869"/>
      <point x="345.986" y="488.738"/>
      <point x="345.986" y="490.607" type="curve" smooth="yes"/>
      <point x="345.986" y="688.813"/>
      <point x="399.009" y="890"/>
      <point x="612" y="890" type="curve" smooth="yes"/>
      <point x="756" y="890"/>
      <point x="807" y="799"/>
      <point x="807" y="602" type="curve" smooth="yes"/>
      <point x="807" y="0" type="line"/>
      <point x="1029" y="0" type="line"/>
      <point x="1029" y="497" type="line" smooth="yes"/>
      <point x="1029" y="695"/>
      <point x="1078" y="890"/>
      <point x="1296" y="890" type="curve" smooth="yes"/>
      <point x="1439" y="890"/>
      <point x="1490" y="799"/>
      <point x="1490" y="602" type="curve" smooth="yes"/>
      <point x="1490" y="0" type="line"/>
      <point x="1713" y="0" type="line"/>
      <point x="1713" y="597" type="line" smooth="yes"/>
      <point x="1713" y="803"/>
      <point x="1668" y="1047"/>
      <point x="1345" y="1047" type="curve" smooth="yes"/>
      <point x="1173" y="1047"/>
      <point x="1060" y="979"/>
      <point x="993" y="849" type="curve"/>
      <point x="949" y="963"/>
      <point x="855" y="1047"/>
      <point x="662" y="1047" type="curve" smooth="yes"/>
      <point x="516" y="1047"/>
      <point x="415" y="992"/>
      <point x="346" y="897" type="curve"/>
      <point x="346" y="1023" type="line"/>
      <point x="123" y="1023" type="line"/>
    </contour>
  </outline>
</glyph>
<glyph name="n" format="1">
  <advance width="1142"/>
  <unicode hex="006E"/>
  <outline>
    <contour>
      <point x="123" y="0" type="line"/>
      <point x="346" y="0" type="line"/>
      <point x="346" y="480" type="line" smooth="yes"/>
      <point x="345.967" y="483.192"/>
      <point x="345.95" y="486.391"/>
      <point x="345.95" y="489.597" type="curve" smooth="yes"/>
      <point x="345.95" y="678.258"/>
      <point x="404.626" y="890"/>
      <point x="618" y="890" type="curve" smooth="yes"/>
      <point x="762" y="890"/>
      <point x="807" y="793"/>
      <point x="807" y="596" type="curve" smooth="yes"/>
      <point x="807" y="0" type="line"/>
      <point x="1029" y="0" type="line"/>
      <point x="1029" y="597" type="line" smooth="yes"/>
      <point x="1029" y="803"/>
      <point x="985" y="1047"/>
      <point x="662" y="1047" type="curve" smooth="yes"/>
      <point x="517" y="1047"/>
      <point x="415" y="993"/>
      <point x="346" y="898" type="curve"/>
      <point x="346" y="1023" type="line"/>
      <point x="123" y="1023" type="line"/>
    </contour>
  </outline>
</glyph>
<glyph name="y" format="1">
  <advance width="992"/>
  <unicode hex="0079"/>
  <outline>
    <contour>
      <point x="160" y="-317" type="curve" smooth="yes"/>
      <point x="379" y="-315"/>
      <point x="487" y="-200"/>
      <point x="593" y="64" type="curve"/>
      <point x="982" y="1023" type="line"/>
      <point x="762" y="1023" type="line"/>
      <point x="507" y="374" type="line"/>
      <point x="249" y="1023" type="line"/>
      <point x="20" y="1023" type="line"/>
      <point x="393" y="146" type="line"/>
      <point x="381" y="107" type="line"/>
      <point x="319" y="-89"/>
      <point x="249" y="-125"/>
      <point x="134" y="-125" type="curve" smooth="yes"/>
      <point x="118" y="-125"/>
      <point x="98" y="-122"/>
      <point x="77" y="-120" type="curve"/>
      <point x="51" y="-301" type="line"/>
      <point x="88" y="-311"/>
      <point x="127" y="-317"/>
    </contour>
  </outline>
</glyph>
<glyph name="braceleft" format="1">
  <advance width="644"/>
  <unicode hex="007B"/>
  <outline>
    <contour>
      <point x="631" y="-130" type="curve"/>
      <point x="631" y="9" type="line"/>
      <point x="420" y="9"/>
      <point x="393" y="50"/>
      <point x="393" y="381" type="curve" smooth="yes"/>
      <point x="393" y="563"/>
      <point x="351" y="676"/>
      <point x="222" y="707" type="curve"/>
      <point x="351" y="738"/>
      <point x="393" y="851"/>
      <point x="393" y="1033" type="curve" smooth="yes"/>
      <point x="393" y="1365"/>
      <point x="420" y="1405"/>
      <point x="631" y="1405" type="curve"/>
      <point x="631" y="1544" type="line"/>
      <point x="233" y="1544"/>
      <point x="152" y="1419"/>
      <point x="152" y="1048" type="curve" smooth="yes"/>
      <point x="152" y="1044.9"/>
      <point x="152.001" y="1041.8"/>
      <point x="152.001" y="1038.71" type="curve" smooth="yes"/>
      <point x="152.001" y="911.146"/>
      <point x="150.095" y="791.716"/>
      <point x="-11" y="780" type="curve"/>
      <point x="-11" y="634" type="line"/>
      <point x="150.095" y="622.284"/>
      <point x="152.001" y="502.854"/>
      <point x="152.001" y="375.29" type="curve" smooth="yes"/>
      <point x="152.001" y="372.198"/>
      <point x="152" y="369.101"/>
      <point x="152" y="366" type="curve" smooth="yes"/>
      <point x="152" y="-5"/>
      <point x="233" y="-130"/>
    </contour>
  </outline>
</glyph>
<glyph name="asciitilde" format="1">
  <advance width="962"/>
  <unicode hex="007E"/>
  <outline>
    <contour>
      <point x="759.047" y="664.975" type="curve" smooth="yes"/>
      <point x="898.955" y="664.975"/>
      <point x="943.192" y="771.772"/>
      <point x="953" y="981" type="curve"/>
      <point x="766" y="981" type="line"/>
      <point x="748" y="913"/>
      <point x="744" y="884"/>
      <point x="687" y="884" type="curve" smooth="yes"/>
      <point x="617.165" y="884"/>
      <point x="387.909" y="981.077"/>
      <point x="229.529" y="981.077" type="curve" smooth="yes"/>
      <point x="220.084" y="981.077"/>
      <point x="210.892" y="980.732"/>
      <point x="202" y="980" type="curve" smooth="yes"/>
      <point x="110" y="972"/>
      <point x="25" y="910"/>
      <point x="10" y="673" type="curve"/>
      <point x="197" y="673" type="line"/>
      <point x="218" y="761"/>
      <point x="243" y="768"/>
      <point x="275" y="768" type="curve" smooth="yes"/>
      <point x="366.811" y="768"/>
      <point x="569.709" y="664.975"/>
    </contour>
  </outline>
</glyph>
<glyph name="ordfeminine" format="1">
  <advance width="946"/>
  <unicode hex="00AA"/>
  <outline>
    <contour>
      <point x="401.945" y="582.576" type="curve" smooth="yes"/>
      <point x="514.727" y="582.576"/>
      <point x="593.01" y="643.263"/>
      <point x="635" y="701" type="curve"/>
      <point x="654" y="603" type="line"/>
      <point x="822" y="603" type="line"/>
      <point x="822" y="1139" type="line" smooth="yes"/>
      <point x="822" y="1357"/>
      <point x="696" y="1474"/>
      <point x="495" y="1474" type="curve" smooth="yes"/>
      <point x="398" y="1474"/>
      <point x="260" y="1422"/>
      <point x="185" y="1340" type="curve"/>
      <point x="185" y="1340"/>
      <point x="306" y="1229"/>
      <point x="306" y="1228" type="curve"/>
      <point x="363" y="1284"/>
      <point x="425" y="1318"/>
      <point x="497" y="1318" type="curve" smooth="yes"/>
      <point x="590" y="1318"/>
      <point x="629" y="1258"/>
      <point x="629" y="1159" type="curve" smooth="yes"/>
      <point x="629" y="1111" type="line"/>
      <point x="544" y="1106" type="line" smooth="yes"/>
      <point x="319" y="1092"/>
      <point x="143" y="1018"/>
      <point x="143" y="804" type="curve" smooth="yes"/>
      <point x="143" y="661.98"/>
      <point x="267.31" y="582.576"/>
    </contour>
    <contour>
      <point x="432.111" y="704.634" type="curve" smooth="yes"/>
      <point x="359.777" y="704.634"/>
      <point x="318.424" y="746.982"/>
      <point x="318.424" y="809.261" type="curve" smooth="yes"/>
      <point x="318.424" y="816.5"/>
      <point x="318.944" y="824.083"/>
      <point x="320" y="832" type="curve" smooth="yes"/>
      <point x="332" y="911"/>
      <point x="366" y="958"/>
      <point x="546" y="971" type="curve" smooth="yes"/>
      <point x="629" y="977" type="line"/>
      <point x="629" y="820" type="line"/>
      <point x="591.6" y="770.134"/>
      <point x="510.978" y="704.634"/>
    </contour>
  </outline>
</glyph>
<glyph name="plusminus" format="1">
  <advance width="860"/>
  <unicode hex="00B1"/>
  <outline>
    <contour>
      <point x="349" y="423" type="line"/>
      <point x="509" y="423" type="line"/>
      <point x="509" y="648" type="line"/>
      <point x="730" y="648" type="line"/>
      <point x="730" y="804" type="line"/>
      <point x="509" y="804" type="line"/>
      <point x="509" y="1023" type="line"/>
      <point x="349" y="1023" type="line"/>
      <point x="349" y="804" type="line"/>
      <point x="128" y="804" type="line"/>
      <point x="128" y="648" type="line"/>
      <point x="349" y="648" type="line"/>
    </contour>
    <contour>
      <point x="127" y="207" type="line"/>
      <point x="730" y="207" type="line"/>
      <point x="730" y="340" type="line"/>
      <point x="127" y="340" type="line"/>
    </contour>
  </outline>
</glyph>
<glyph name="uni00B3" format="1">
  <advance width="1317"/>
  <unicode hex="00B3"/>
  <outline>
    <contour>
      <point x="337" y="677" type="line"/>
      <point x="379.067" y="503.724"/>
      <point x="494.692" y="439.995"/>
      <point x="654.058" y="439.995" type="curve" smooth="yes"/>
      <point x="866.718" y="439.995"/>
      <point x="978" y="594.443"/>
      <point x="978" y="732" type="curve" smooth="yes"/>
      <point x="979" y="857"/>
      <point x="933" y="982"/>
      <point x="784" y="1028" type="curve"/>
      <point x="899" y="1071"/>
      <point x="929" y="1163"/>
      <point x="929" y="1261" type="curve" smooth="yes"/>
      <point x="929" y="1399"/>
      <point x="817" y="1490"/>
      <point x="644" y="1490" type="curve" smooth="yes"/>
      <point x="526" y="1490"/>
      <point x="432" y="1437"/>
      <point x="359" y="1329" type="curve"/>
      <point x="470" y="1264" type="line"/>
      <point x="528" y="1348"/>
      <point x="579" y="1370"/>
      <point x="649" y="1370" type="curve" smooth="yes"/>
      <point x="731" y="1370"/>
      <point x="783" y="1318"/>
      <point x="783" y="1250" type="curve" smooth="yes"/>
      <point x="783" y="1157.58"/>
      <point x="761.275" y="1078.99"/>
      <point x="572.589" y="1078.99" type="curve" smooth="yes"/>
      <point x="571.4" y="1078.99"/>
      <point x="570.203" y="1078.99"/>
      <point x="569" y="1079" type="curve"/>
      <point x="569" y="963" type="line"/>
      <point x="718.228" y="963"/>
      <point x="823.324" y="922.623"/>
      <point x="823.324" y="748.15" type="curve" smooth="yes"/>
      <point x="823.324" y="647.476"/>
      <point x="782.246" y="560.861"/>
      <point x="647.203" y="560.861" type="curve" smooth="yes"/>
      <point x="538.058" y="560.861"/>
      <point x="501.535" y="625.525"/>
      <point x="468" y="718" type="curve"/>
    </contour>
  </outline>
</glyph>
<glyph name="uni00B9" format="1">
  <advance width="981"/>
  <unicode hex="00B9"/>
  <outline>
    <contour>
      <point x="285" y="1276" type="line"/>
      <point x="459" y="1443" type="line"/>
      <point x="442" y="478" type="line"/>
      <point x="611" y="374" type="line"/>
      <point x="626" y="1496" type="line"/>
      <point x="501" y="1506" type="line"/>
      <point x="253" y="1420" type="line"/>
    </contour>
  </outline>
</glyph>
<glyph name="onequarter" format="1">
  <advance width="1403"/>
  <unicode hex="00BC"/>
  <outline>
    <contour>
      <point x="1096" y="0" type="line"/>
      <point x="1268" y="0" type="line"/>
      <point x="1268" y="116" type="line"/>
      <point x="1377" y="116" type="line"/>
      <point x="1377" y="244" type="line"/>
      <point x="1268" y="244" type="line"/>
      <point x="1268" y="693" type="line"/>
      <point x="1042" y="693" type="line"/>
      <point x="758" y="220" type="line"/>
      <point x="758" y="116" type="line"/>
      <point x="1096" y="116" type="line"/>
    </contour>
    <contour>
      <point x="175" y="769" type="line"/>
      <point x="353" y="769" type="line"/>
      <point x="353" y="1464" type="line"/>
      <point x="191" y="1464" type="line"/>
      <point x="32" y="1389" type="line"/>
      <point x="64" y="1248" type="line"/>
      <point x="175" y="1309" type="line"/>
    </contour>
    <contour>
      <point x="145" y="-14" type="line"/>
      <point x="1380" y="1415" type="line"/>
      <point x="1258" y="1518" type="line"/>
      <point x="22" y="89" type="line"/>
    </contour>
    <contour>
      <point x="936" y="244" type="line"/>
      <point x="1096" y="536" type="line"/>
      <point x="1096" y="244" type="line"/>
    </contour>
  </outline>
</glyph>
<glyph name="eth" format="1">
  <advance width="1053"/>
  <unicode hex="00F0"/>
  <outline>
    <contour>
      <point x="60" y="454" type="curve" smooth="yes"/>
      <point x="60" y="206.398"/>
      <point x="218.928" y="-24.0278"/>
      <point x="524.122" y="-24.0278" type="curve" smooth="yes"/>
      <point x="850.813" y="-24.0278"/>
      <point x="996" y="214.955"/>
      <point x="996" y="529" type="curve" smooth="yes"/>
      <point x="996" y="774"/>
      <point x="935" y="1024"/>
      <point x="774" y="1200" type="curve"/>
      <point x="941" y="1309" type="line"/>
      <point x="859" y="1424" type="line"/>
      <point x="663" y="1296" type="line"/>
      <point x="541" y="1380"/>
      <point x="379" y="1432"/>
      <point x="169" y="1432" type="curve"/>
      <point x="169" y="1286" type="line"/>
      <point x="307" y="1286"/>
      <point x="419" y="1252"/>
      <point x="508" y="1195" type="curve"/>
      <point x="373" y="1107" type="line"/>
      <point x="455" y="992" type="line"/>
      <point x="621" y="1100" type="line"/>
      <point x="709" y="1005"/>
      <point x="757" y="885"/>
      <point x="771" y="774" type="curve"/>
      <point x="708" y="864"/>
      <point x="610" y="908"/>
      <point x="503" y="908" type="curve" smooth="yes"/>
      <point x="280" y="908"/>
      <point x="60" y="746"/>
    </contour>
    <contour>
      <point x="535.821" y="145.343" type="curve" smooth="yes"/>
      <point x="392.978" y="145.343"/>
      <point x="282" y="253.897"/>
      <point x="282" y="444" type="curve" smooth="yes"/>
      <point x="282" y="617"/>
      <point x="383" y="736"/>
      <point x="523" y="736" type="curve" smooth="yes"/>
      <point x="618" y="736"/>
      <point x="685" y="689"/>
      <point x="777" y="588" type="curve"/>
      <point x="783" y="562"/>
      <point x="784" y="535"/>
      <point x="784" y="511" type="curve" smooth="yes"/>
      <point x="784" y="321.638"/>
      <point x="711.194" y="145.343"/>
    </contour>
  </outline>
</glyph>
<glyph name="oslash" format="1">
  <advance width="1104"/>
  <unicode hex="00F8"/>
  <outline>
    <component base="o"/>
    <contour>
      <point x="297" y="-200" type="line"/>
      <point x="947" y="1175" type="line"/>
      <point x="835" y="1234" type="line"/>
      <point x="182" y="-141" type="line"/>
    </contour>
  </outline>
</glyph>
<glyph name="dotlessi" format="1">
  <advance width="463"/>
  <unicode hex="0131"/>
  <outline>
    <contour>
      <point x="137" y="0" type="line"/>
      <point x="359" y="0" type="line"/>
      <point x="359" y="1023" type="line"/>
      <point x="137" y="1023" type="line"/>
    </contour>
  </outline>
</glyph>
<glyph name="Lslash" format="1">
  <advance width="1055"/>
  <unicode hex="0141"/>
  <outline>
    <component base="L"/>
    <contour>
      <point x="-33" y="573" type="line"/>
      <point x="650" y="833" type="line"/>
      <point x="650" y="1024" type="line"/>
      <point x="-33" y="764" type="line"/>
    </contour>
  </outline>
</glyph>
<glyph name="Eng" format="1">
  <advance width="1496"/>
  <unicode hex="014A"/>
  <outline>
    <component base="N"/>
    <contour>
      <point x="876" y="-465" type="line"/>
      <point x="877.659" y="-465.006"/>
      <point x="879.316" y="-465.009"/>
      <point x="880.97" y="-465.009" type="curve" smooth="yes"/>
      <point x="1162.35" y="-465.009"/>
      <point x="1362" y="-379.867"/>
      <point x="1362" y="-17" type="curve" smooth="yes"/>
      <point x="1362" y="529" type="line"/>
      <point x="1163" y="529" type="line"/>
      <point x="1163" y="-12" type="line" smooth="yes"/>
      <point x="1163" y="-226"/>
      <point x="1086" y="-295"/>
      <point x="879" y="-299" type="curve"/>
    </contour>
  </outline>
</glyph>
<glyph name="OE" format="1">
  <advance width="2171"/>
  <unicode hex="0152"/>
  <outline>
    <contour>
      <point x="722" y="-25" type="curve" smooth="yes"/>
      <point x="982" y="-25"/>
      <point x="1091" y="54"/>
      <point x="1164" y="157" type="curve"/>
      <point x="1164" y="0" type="line"/>
      <point x="2121" y="0" type="line"/>
      <point x="2121" y="174" type="line"/>
      <point x="1395" y="174" type="line"/>
      <point x="1395" y="690" type="line"/>
      <point x="2019" y="690" type="line"/>
      <point x="2019" y="866" type="line"/>
      <point x="1395" y="866" type="line"/>
      <point x="1395" y="1290" type="line"/>
      <point x="2110" y="1290" type="line"/>
      <point x="2110" y="1464" type="line"/>
      <point x="1163" y="1464" type="line"/>
      <point x="1163" y="1309" type="line"/>
      <point x="1080" y="1423"/>
      <point x="945" y="1491"/>
      <point x="723" y="1491" type="curve" smooth="yes"/>
      <point x="344" y="1491"/>
      <point x="97" y="1282"/>
      <point x="97" y="740" type="curve" smooth="yes"/>
      <point x="97" y="186"/>
      <point x="339" y="-25"/>
    </contour>
    <contour>
      <point x="755.228" y="160.487" type="curve" smooth="yes"/>
      <point x="437.811" y="160.487"/>
      <point x="339" y="326.074"/>
      <point x="339" y="741" type="curve" smooth="yes"/>
      <point x="339" y="1143.58"/>
      <point x="447.777" y="1306.51"/>
      <point x="752.528" y="1306.51" type="curve" smooth="yes"/>
      <point x="1068.14" y="1306.51"/>
      <point x="1164" y="1136.68"/>
      <point x="1164" y="746" type="curve" smooth="yes"/>
      <point x="1164" y="300.669"/>
      <point x="1053.88" y="160.487"/>
    </contour>
  </outline>
</glyph>
<glyph name="Tbar" format="1">
  <advance width="1119"/>
  <unicode hex="0166"/>
  <outline>
    <component base="T"/>
    <contour>
      <point x="251" y="646" type="line"/>
      <point x="885" y="646" type="line"/>
      <point x="885" y="803" type="line"/>
      <point x="251" y="803" type="line"/>
    </contour>
  </outline>
</glyph>
<glyph name="afii57929" format="1">
  <advance width="600"/>
  <unicode hex="02BC"/>
  <outline>
    <contour>
      <point x="283" y="1212" type="line"/>
      <point x="423.054" y="1289.92"/>
      <point x="459.021" y="1395.07"/>
      <point x="459.021" y="1593.67" type="curve" smooth="yes"/>
      <point x="459.021" y="1596.43"/>
      <point x="459.014" y="1599.2"/>
      <point x="459" y="1602" type="curve" smooth="yes"/>
      <point x="459" y="1756" type="line"/>
      <point x="182" y="1756" type="line"/>
      <point x="182" y="1508" type="line"/>
      <point x="305" y="1495" type="line"/>
      <point x="305" y="1423"/>
      <point x="244" y="1341"/>
      <point x="210" y="1308" type="curve"/>
    </contour>
  </outline>
</glyph>
<glyph name="uni02C9" format="1">
  <advance width="600"/>
  <unicode hex="02C9"/>
  <outline>
    <contour>
      <point x="63" y="1242" type="line"/>
      <point x="517" y="1242" type="line"/>
      <point x="517" y="1399" type="line"/>
      <point x="63" y="1399" type="line"/>
    </contour>
  </outline>
</glyph>
<glyph name="hungarumlaut" format="1">
  <advance width="745"/>
  <unicode hex="02DD"/>
  <outline>
    <contour>
      <point x="41" y="1134" type="line"/>
      <point x="144" y="1134" type="line"/>
      <point x="393" y="1477" type="line"/>
      <point x="100" y="1477" type="line"/>
    </contour>
    <contour>
      <point x="378" y="1134" type="line"/>
      <point x="491" y="1134" type="line"/>
      <point x="766" y="1477" type="line"/>
      <point x="464" y="1477" type="line"/>
    </contour>
  </outline>
</glyph>
<glyph name="uni0326" format="1">
  <advance width="409"/>
  <unicode hex="0326"/>
  <outline>
    <contour>
      <point x="181" y="-723" type="line"/>
      <point x="338" y="-630"/>
      <point x="363" y="-520"/>
      <point x="363" y="-310" type="curve" smooth="yes"/>
      <point x="363" y="-168" type="line"/>
      <point x="83" y="-168" type="line"/>
      <point x="83" y="-419" type="line"/>
      <point x="203" y="-433" type="line"/>
      <point x="203" y="-517"/>
      <point x="136" y="-592"/>
      <point x="106" y="-621" type="curve"/>
    </contour>
  </outline>
</glyph>
<glyph name="mu" format="1">
  <advance width="1119"/>
  <unicode hex="03BC"/>
  <unicode hex="00b5"/>
  <outline>
    <component base="u"/>
    <contour>
      <point x="105" y="-224" type="line"/>
      <point x="327" y="-224" type="line"/>
      <point x="327" y="1023" type="line"/>
      <point x="105" y="1023" type="line"/>
    </contour>
  </outline>
</glyph>
<glyph name="quotedblbase" format="1">
  <advance width="744"/>
  <unicode hex="201E"/>
  <outline>
    <contour>
      <point x="159" y="-382" type="line"/>
      <point x="319" y="-269"/>
      <point x="316" y="-87"/>
      <point x="320" y="93" type="curve"/>
      <point x="132" y="93" type="line"/>
      <point x="132" y="-81" type="line"/>
      <point x="131" y="-82"/>
      <point x="192" y="-99"/>
      <point x="192" y="-99" type="curve"/>
      <point x="189" y="-219"/>
      <point x="138" y="-296"/>
      <point x="113" y="-319" type="curve"/>
    </contour>
    <contour>
      <point x="461" y="-382" type="line"/>
      <point x="621" y="-269"/>
      <point x="618" y="-87"/>
      <point x="622" y="93" type="curve"/>
      <point x="434" y="93" type="line"/>
      <point x="434" y="-81" type="line" smooth="yes"/>
      <point x="434" y="-82"/>
      <point x="494" y="-99"/>
      <point x="494" y="-99" type="curve"/>
      <point x="491" y="-219"/>
      <point x="440" y="-296"/>
      <point x="415" y="-319" type="curve"/>
    </contour>
  </outline>
</glyph>
<glyph name="fraction" format="1">
  <advance width="1389"/>
  <unicode hex="2044"/>
  <outline>
    <contour>
      <point x="139" y="-14" type="line"/>
      <point x="1374" y="1415" type="line"/>
      <point x="1252" y="1518" type="line"/>
      <point x="16" y="89" type="line"/>
    </contour>
  </outline>
</glyph>
<glyph name="uni2074" format="1">
  <advance width="1217"/>
  <unicode hex="2074"/>
  <outline>
    <contour>
      <point x="197" y="676" type="line"/>
      <point x="197" y="730" type="line"/>
      <point x="642" y="1464" type="line"/>
      <point x="922" y="1535" type="line"/>
      <point x="922" y="814" type="line"/>
      <point x="1049" y="814" type="line"/>
      <point x="1049" y="711" type="line"/>
      <point x="852" y="711" type="line"/>
      <point x="852" y="423" type="line"/>
      <point x="678" y="423" type="line"/>
      <point x="678" y="676" type="line"/>
    </contour>
    <contour>
      <point x="746" y="801" type="line"/>
      <point x="711" y="1369" type="line"/>
      <point x="371" y="801" type="line"/>
    </contour>
  </outline>
</glyph>
